<svg width="49" height="49" viewBox="0 0 49 49" fill="none" xmlns="http://www.w3.org/2000/svg">
<g clip-path="url(#clip0_387_562)">
<path d="M24.2114 0.000400535C22.2129 0.00968374 20.3045 0.180131 18.6253 0.477289C13.6785 1.35125 12.7803 3.18042 12.7803 6.55386V11.0091H24.4702V12.4942H12.7803H8.39322C4.99585 12.4942 2.02092 14.5362 1.09049 18.4209C0.0171838 22.8735 -0.0303807 25.6522 1.09049 30.3015C1.92148 33.7623 3.90589 36.2281 7.30325 36.2281H11.3225V30.8872C11.3225 27.0288 14.6609 23.6254 18.6253 23.6254H30.3016C33.5518 23.6254 36.1465 20.9492 36.1465 17.6851V6.55386C36.1465 3.3859 33.4739 1.00605 30.3016 0.477289C28.2934 0.142998 26.2098 -0.00888267 24.2114 0.000400535ZM17.8895 3.58372C19.097 3.58372 20.0831 4.58592 20.0831 5.8181C20.0831 7.04597 19.097 8.03889 17.8895 8.03889C16.6778 8.03889 15.696 7.04597 15.696 5.8181C15.696 4.58582 16.6778 3.58372 17.8895 3.58372Z" fill="url(#paint0_linear_387_562)"/>
<path d="M37.6042 12.4943V17.6853C37.6042 21.7098 34.1922 25.097 30.3015 25.097H18.6252C15.4269 25.097 12.7803 27.8343 12.7803 31.0373V42.1685C12.7803 45.3365 15.5351 47.1999 18.6252 48.1088C22.3256 49.1969 25.8741 49.3935 30.3015 48.1088C33.2445 47.2568 36.1464 45.542 36.1464 42.1685V37.7133H24.4701V36.2281H36.1464H41.9914C45.3887 36.2281 46.6548 33.8584 47.8363 30.3015C49.0568 26.6397 49.0049 23.1183 47.8363 18.4208C46.9967 15.0387 45.3931 12.4941 41.9914 12.4941H37.6042V12.4943ZM31.0373 40.6835C32.2491 40.6835 33.2308 41.6764 33.2308 42.9043C33.2308 44.1366 32.2491 45.1388 31.0373 45.1388C29.8298 45.1388 28.8438 44.1366 28.8438 42.9043C28.8437 41.6764 29.8297 40.6835 31.0373 40.6835Z" fill="url(#paint1_linear_387_562)"/>
</g>
<defs>
<linearGradient id="paint0_linear_387_562" x1="-0.878126" y1="1.39349" x2="26.0835" y2="24.3861" gradientUnits="userSpaceOnUse">
<stop stop-color="#5A9FD4"/>
<stop offset="1" stop-color="#306998"/>
</linearGradient>
<linearGradient id="paint1_linear_387_562" x1="36.2278" y1="38.6788" x2="26.5591" y2="25.1197" gradientUnits="userSpaceOnUse">
<stop stop-color="#FFD43B"/>
<stop offset="1" stop-color="#FFE873"/>
</linearGradient>
<clipPath id="clip0_387_562">
<rect width="49" height="49" fill="white"/>
</clipPath>
</defs>
</svg>
