<svg width="43" height="43" viewBox="0 0 43 43" fill="none" xmlns="http://www.w3.org/2000/svg">
<g clip-path="url(#clip0_387_572)">
<path d="M9.87004 13.2915V31.9043C9.87004 33.3579 10.7429 34.4983 12.239 34.4983H14.1921C14.1251 34.4983 13.9746 34.9916 13.9746 35.2337V40.5053C13.9746 41.8831 15.2956 43.0002 16.7109 43.0002C18.127 43.0002 19.4473 41.8831 19.4473 40.5053V35.2337C19.4473 34.9916 19.1833 34.4983 19.1183 34.4983H23.8823C23.8173 34.4983 23.5519 34.9916 23.5519 35.2337V40.5053C23.5519 41.8831 24.8701 43.0002 26.2855 43.0002C27.7043 43.0002 29.0246 41.8831 29.0246 40.5053V35.2337C29.0246 34.9916 28.8748 34.4983 28.8077 34.4983H30.7635C32.2597 34.4983 33.1291 33.3579 33.1291 31.9043V13.2915H9.71338H9.87004Z" fill="#57C927"/>
<path d="M5.08158 13.5942C3.66483 13.5942 2.34521 14.712 2.34521 16.0891V26.7712C2.34521 28.149 3.66483 29.2661 5.08158 29.2661C6.49765 29.2661 7.81794 28.149 7.81794 26.7712V16.0898C7.81794 14.712 6.49765 13.5942 5.08158 13.5942Z" fill="#57C927"/>
<path d="M27.3892 3.59635L27.8667 2.89584L28.3448 2.20354L29.41 0.64723C29.5434 0.454316 29.4879 0.197098 29.2916 0.0705409C29.0973 -0.0587523 28.8285 -0.00470915 28.7012 0.186836L27.0752 2.55584L26.586 3.26935C25.0407 2.68514 23.3188 2.35951 21.4998 2.35951C19.6849 2.35951 17.9596 2.68582 16.4143 3.26935L15.9279 2.55653L15.447 1.8567L14.3045 0.188205C14.1725 -0.00402504 13.9071 -0.0546478 13.7101 0.0719091C13.5151 0.19915 13.4611 0.456368 13.591 0.648598L14.6555 2.20559L15.1337 2.89857L15.6139 3.59703C11.9855 5.24227 9.53027 8.50265 9.53027 11.9231H33.47C33.47 8.50265 31.0155 5.24227 27.3892 3.59635ZM16.3698 8.60184C15.659 8.60184 15.0865 8.04294 15.0865 7.35269C15.0865 6.66244 15.659 6.10628 16.3698 6.10628C17.0785 6.10628 17.6525 6.66244 17.6525 7.35269C17.6525 8.04294 17.0792 8.60184 16.3698 8.60184ZM26.6312 8.60184C25.9211 8.60184 25.3471 8.04294 25.3471 7.35269C25.3471 6.66244 25.9211 6.10628 26.6312 6.10628C27.3399 6.10628 27.9139 6.66244 27.9139 7.35269C27.9139 8.04294 27.3399 8.60184 26.6312 8.60184Z" fill="#57C927"/>
<path d="M5.20335 19.1711C4.13685 19.1711 3.02931 18.1648 2.34521 16.5688V26.7721C2.34521 28.1498 3.66483 29.2669 5.08158 29.2669C6.49765 29.2669 7.81794 28.1498 7.81794 26.7721V17.1011C7.13385 18.3831 6.14466 19.1711 5.20335 19.1711Z" fill="#1CB71C"/>
<path d="M37.918 13.5942C36.5013 13.5942 35.1816 14.712 35.1816 16.0891V26.7712C35.1816 28.149 36.5013 29.2661 37.918 29.2661C39.3341 29.2661 40.6544 28.149 40.6544 26.7712V16.0898C40.6544 14.712 39.3341 13.5942 37.918 13.5942Z" fill="#57C927"/>
<path d="M38.0398 19.1711C36.9733 19.1711 35.8657 18.1648 35.1816 16.5688V26.7721C35.1816 28.1498 36.5013 29.2669 37.918 29.2669C39.3341 29.2669 40.6544 28.1498 40.6544 26.7721V17.1011C39.9703 18.3831 38.9811 19.1711 38.0398 19.1711Z" fill="#1CB71C"/>
<path d="M21.4997 15.3356C16.0885 15.3356 11.2383 14.7096 9.87012 13.821V31.9043C9.87012 33.358 10.743 34.4983 12.2391 34.4983H14.1922C14.1252 34.4983 13.9747 34.9916 13.9747 35.2337V40.5053C13.9747 41.8831 15.2956 43.0002 16.711 43.0002C18.1271 43.0002 19.4474 41.8831 19.4474 40.5053V35.2337C19.4474 34.9916 19.1833 34.4983 19.1183 34.4983H23.8824C23.8174 34.4983 23.5519 34.9916 23.5519 35.2337V40.5053C23.5519 41.8831 24.8702 43.0002 26.2856 43.0002C27.7044 43.0002 29.0247 41.8831 29.0247 40.5053V35.2337C29.0247 34.9916 28.8749 34.4983 28.8078 34.4983H30.7636C32.2597 34.4983 33.1292 33.358 33.1292 31.9043V13.8203C31.761 14.7089 26.9115 15.3356 21.4997 15.3356Z" fill="#1CB71C"/>
<path d="M27.9139 7.35201C27.9139 8.04225 27.3399 8.60116 26.6312 8.60116C25.9211 8.60116 25.3471 8.04225 25.3471 7.35201C25.3471 6.97781 25.5189 6.64739 25.7863 6.41891C24.4339 6.19316 22.9952 6.06934 21.4998 6.06934C20.0044 6.06934 18.5664 6.19316 17.2133 6.41891C17.4815 6.64671 17.6532 6.97781 17.6532 7.35201C17.6532 8.04225 17.0792 8.60116 16.3705 8.60116C15.6597 8.60116 15.0871 8.04225 15.0871 7.35201C15.0871 7.17551 15.1261 7.00791 15.1939 6.85536C13.143 7.39442 11.3807 8.18113 10.0509 9.14775C9.71566 10.0282 9.53027 11.239 9.53027 11.9231H33.47C33.47 11.239 33.2847 10.0289 32.9501 9.14911C31.6209 8.18113 29.858 7.39305 27.8085 6.85399C27.8755 7.00654 27.9139 7.1762 27.9139 7.35201Z" fill="#1CB71C"/>
<path d="M21.5002 22.4738C16.8914 22.4738 12.607 21.5647 9.87061 20.0747V31.904C9.87061 33.3577 10.7435 34.4981 12.2396 34.4981H14.1927C14.1257 34.4981 13.9752 34.9913 13.9752 35.2335V40.5051C13.9752 41.8828 15.2961 43 16.7115 43C18.1276 43 19.4479 41.8828 19.4479 40.5051V35.2335C19.4479 34.9913 19.1838 34.4981 19.1188 34.4981H23.8828C23.8179 34.4981 23.5524 34.9913 23.5524 35.2335V40.5051C23.5524 41.8828 24.8707 43 26.2861 43C27.7049 43 29.0252 41.8828 29.0252 40.5051V35.2335C29.0252 34.9913 28.8753 34.4981 28.8083 34.4981H30.7641C32.2602 34.4981 33.1297 33.3577 33.1297 31.904V20.0747C30.3933 21.5653 26.1089 22.4738 21.5002 22.4738Z" fill="#049E42"/>
</g>
<defs>
<clipPath id="clip0_387_572">
<rect width="43" height="43" fill="white"/>
</clipPath>
</defs>
</svg>
