<svg width="43" height="43" viewBox="0 0 43 43" fill="none" xmlns="http://www.w3.org/2000/svg">
<path d="M29.7749 0C29.875 0 29.9751 0 30.0808 0C30.3263 3.03245 29.1688 5.29829 27.7621 6.93914C26.3818 8.56866 24.4917 10.1491 21.4347 9.90928C21.2308 6.92026 22.3902 4.82247 23.795 3.1854C25.0979 1.65973 27.4864 0.302112 29.7749 0Z" fill="black"/>
<path d="M39.029 31.5633C39.029 31.5935 39.029 31.6199 39.029 31.6482C38.1699 34.2502 36.9444 36.4801 35.449 38.5496C34.0838 40.4284 32.4108 42.9567 29.4237 42.9567C26.8425 42.9567 25.1281 41.2969 22.4827 41.2516C19.6844 41.2063 18.1455 42.6394 15.587 43.0001C15.2943 43.0001 15.0016 43.0001 14.7146 43.0001C12.8359 42.7282 11.3196 41.2403 10.215 39.8997C6.9579 35.9382 4.44093 30.8212 3.97266 24.2729C3.97266 23.6309 3.97266 22.9908 3.97266 22.3488C4.17092 17.6623 6.44809 13.8519 9.47487 12.0053C11.0723 11.0234 13.2683 10.1869 15.7135 10.5608C16.7614 10.7232 17.832 11.0819 18.7705 11.4369C19.6598 11.7787 20.772 12.3848 21.8256 12.3527C22.5393 12.3319 23.2493 11.96 23.9687 11.6975C26.0759 10.9365 28.1416 10.0642 30.8644 10.4739C34.1367 10.9686 36.4592 12.4226 37.8942 14.6657C35.1261 16.4274 32.9377 19.0822 33.3115 23.6158C33.6438 27.734 36.0381 30.1433 39.029 31.5633Z" fill="black"/>
</svg>
