<svg width="50" height="50" viewBox="0 0 50 50" fill="none" xmlns="http://www.w3.org/2000/svg">
<path d="M50 24.9999C50 21.4733 45.9808 18.4167 39.7235 16.5412C41.3307 9.87348 40.7155 4.60563 37.5997 2.7709C36.9077 2.39343 36.1457 2.16169 35.3606 2.08995C34.5756 2.01822 33.7842 2.10802 33.0353 2.35381C29.9726 3.41706 27.2148 5.20987 25 7.57742C22.7852 5.20987 20.0274 3.41706 16.9647 2.35381C16.2158 2.10796 15.4244 2.01813 14.6393 2.08987C13.8543 2.1616 13.0923 2.39337 12.4003 2.7709C9.28446 4.60563 8.66927 9.87348 10.2765 16.5412C4.01917 18.4167 0 21.4733 0 24.9999C0 28.5265 4.01917 31.583 10.2765 33.4586C8.66927 40.1263 9.28446 45.3942 12.4003 47.2289C13.198 47.6932 14.107 47.9316 15.0299 47.9186C15.684 47.9122 16.3344 47.8205 16.9647 47.646C20.0274 46.5827 22.7852 44.7899 25 42.4224C27.2148 44.7899 29.9726 46.5827 33.0353 47.646C33.6656 47.8205 34.316 47.9122 34.9701 47.9186C35.893 47.9316 36.802 47.6932 37.5997 47.2289C40.7155 45.3942 41.3307 40.1263 39.7235 33.4586C45.9808 31.583 50 28.5265 50 24.9999ZM33.5744 4.36594C34.0257 4.23987 34.4914 4.17285 34.9599 4.16656C35.5135 4.15454 36.06 4.29232 36.5417 4.56533C38.6138 5.78629 39.102 10.1261 37.6999 15.9956C35.5281 15.4804 33.324 15.1131 31.1025 14.8963C29.6955 12.8436 28.143 10.8946 26.4568 9.06425C28.4172 6.94882 30.8587 5.33718 33.5744 4.36594ZM32.2744 29.3069C31.5223 30.636 30.7296 31.9102 29.9144 33.1313C28.3484 33.262 26.7076 33.3332 25 33.3332C23.2924 33.3332 21.6516 33.262 20.0856 33.1313C19.2705 31.9102 18.4776 30.636 17.7256 29.3069C16.899 27.8462 16.1597 26.4105 15.5076 24.9999C16.1632 23.5928 16.9025 22.1571 17.7256 20.6929C18.4777 19.3638 19.2705 18.0896 20.0856 16.8685C21.6516 16.7378 23.2924 16.6666 25 16.6666C26.7076 16.6666 28.3484 16.7378 29.9144 16.8685C30.7295 18.0896 31.5224 19.3638 32.2744 20.6929C33.101 22.1536 33.8403 23.5893 34.4924 24.9999C33.8369 26.407 33.0976 27.8427 32.2744 29.3069ZM35.5858 27.5079C36.2189 29.0624 36.7371 30.5569 37.1595 31.985C35.6513 32.346 34.1255 32.6294 32.5882 32.8343C33.0988 32.02 33.6018 31.1901 34.0872 30.3322C34.6222 29.3868 35.1146 28.4455 35.5858 27.5079ZM25 39.4364C23.7953 38.1253 22.6634 36.7493 21.6094 35.3143C22.7192 35.3746 23.8444 35.4166 25 35.4166C26.1556 35.4166 27.2808 35.3746 28.3906 35.3143C27.3366 36.7493 26.2047 38.1253 25 39.4364ZM17.4118 32.8344C15.8745 32.6295 14.3488 32.3461 12.8405 31.9851C13.2629 30.5569 13.7811 29.0624 14.4142 27.508C14.8853 28.4455 15.3778 29.3869 15.9129 30.3324C16.3982 31.1903 16.9013 32.0201 17.4118 32.8344ZM14.4142 22.4919C13.7811 20.9374 13.2629 19.4429 12.8405 18.0148C14.3488 17.6538 15.8745 17.3704 17.4118 17.1655C16.9013 17.9798 16.3982 18.8096 15.9129 19.6676C15.3778 20.613 14.8854 21.5543 14.4142 22.4919ZM25 10.5634C26.2047 11.8745 27.3366 13.2506 28.3907 14.6855C27.2809 14.6252 26.1556 14.5832 25 14.5832C23.8444 14.5832 22.7191 14.6252 21.6092 14.6855C22.6634 13.2506 23.7953 11.8745 25 10.5634ZM34.0871 19.6675C33.6017 18.8095 33.0987 17.9797 32.5882 17.1654C34.1254 17.3703 35.6512 17.6537 37.1595 18.0146C36.7371 19.4429 36.2189 20.9374 35.5858 22.4917C35.1146 21.5543 34.6222 20.613 34.0871 19.6675ZM13.4583 4.56533C13.94 4.29234 14.4865 4.15456 15.0401 4.16656C15.5086 4.17286 15.9743 4.23988 16.4255 4.36594C19.1412 5.33718 21.5827 6.94882 23.5431 9.06425C21.857 10.8946 20.3045 12.8436 18.8975 14.8963C16.676 15.1131 14.4719 15.4804 12.3001 15.9956C10.8979 10.1261 11.3862 5.78629 13.4583 4.56533ZM2.08333 24.9999C2.08333 22.6773 5.37071 20.2047 10.8204 18.56C11.4793 20.7573 12.2828 22.9087 13.2257 24.9999C12.2828 27.0911 11.4793 29.2425 10.8204 31.4398C5.37071 29.7951 2.08333 27.3225 2.08333 24.9999ZM16.4256 45.6339C15.943 45.8016 15.4315 45.8704 14.9217 45.8361C14.4119 45.8019 13.9142 45.6653 13.4583 45.4345C11.3863 44.2135 10.898 39.8736 12.3002 34.0042C14.4719 34.5194 16.6761 34.8867 18.8976 35.1035C20.3046 37.1562 21.8571 39.1052 23.5432 40.9355C21.5828 43.051 19.1413 44.6626 16.4256 45.6339ZM36.5417 45.4345C36.0858 45.6653 35.5881 45.802 35.0783 45.8362C34.5685 45.8705 34.057 45.8017 33.5743 45.6339C30.8587 44.6626 28.4172 43.051 26.4567 40.9355C28.1429 39.1052 29.6954 37.1562 31.1024 35.1035C33.3239 34.8867 35.5281 34.5194 37.6998 34.0042C39.1021 39.8736 38.6138 44.2135 36.5417 45.4345ZM39.1795 31.4398C38.5206 29.2425 37.7171 27.0911 36.7743 24.9999C37.7172 22.9087 38.5207 20.7573 39.1796 18.56C44.6293 20.2047 47.9167 22.6773 47.9167 24.9999C47.9167 27.3225 44.6292 29.7951 39.1795 31.4398Z" fill="#42A5F5"/>
<path d="M25.0002 20.8335C24.1761 20.8335 23.3705 21.0779 22.6853 21.5357C22.0001 21.9935 21.466 22.6443 21.1507 23.4056C20.8353 24.167 20.7528 25.0048 20.9136 25.813C21.0743 26.6213 21.4712 27.3637 22.0539 27.9464C22.6366 28.5292 23.379 28.926 24.1873 29.0868C24.9955 29.2475 25.8333 29.165 26.5947 28.8497C27.356 28.5343 28.0068 28.0002 28.4646 27.315C28.9225 26.6298 29.1668 25.8243 29.1668 25.0002C29.1656 23.8955 28.7262 22.8364 27.945 22.0553C27.1639 21.2742 26.1048 20.8348 25.0002 20.8335ZM25.0002 27.0835C24.5881 27.0835 24.1853 26.9613 23.8427 26.7324C23.5001 26.5035 23.2331 26.1781 23.0754 25.7974C22.9177 25.4167 22.8765 24.9979 22.9569 24.5937C23.0372 24.1896 23.2357 23.8184 23.527 23.527C23.8184 23.2357 24.1896 23.0372 24.5937 22.9569C24.9979 22.8765 25.4167 22.9177 25.7974 23.0754C26.1781 23.2331 26.5035 23.5001 26.7324 23.8427C26.9613 24.1853 27.0835 24.5881 27.0835 25.0002C27.0829 25.5525 26.8633 26.0821 26.4727 26.4727C26.0821 26.8633 25.5525 27.0829 25.0002 27.0835Z" fill="#42A5F5"/>
<path d="M50 24.9999C50 21.4733 45.9808 18.4167 39.7235 16.5412C41.3307 9.87348 40.7155 4.60563 37.5997 2.7709C36.9077 2.39343 36.1457 2.16169 35.3606 2.08995C34.5756 2.01822 33.7842 2.10802 33.0353 2.35381C29.9726 3.41706 27.2148 5.20987 25 7.57742C22.7852 5.20987 20.0274 3.41706 16.9647 2.35381C16.2158 2.10796 15.4244 2.01813 14.6393 2.08987C13.8543 2.1616 13.0923 2.39337 12.4003 2.7709C9.28446 4.60563 8.66927 9.87348 10.2765 16.5412C4.01917 18.4167 0 21.4733 0 24.9999C0 28.5265 4.01917 31.583 10.2765 33.4586C8.66927 40.1263 9.28446 45.3942 12.4003 47.2289C13.198 47.6932 14.107 47.9316 15.0299 47.9186C15.684 47.9122 16.3344 47.8205 16.9647 47.646C20.0274 46.5827 22.7852 44.7899 25 42.4224C27.2148 44.7899 29.9726 46.5827 33.0353 47.646C33.6656 47.8205 34.316 47.9122 34.9701 47.9186C35.893 47.9316 36.802 47.6932 37.5997 47.2289C40.7155 45.3942 41.3307 40.1263 39.7235 33.4586C45.9808 31.583 50 28.5265 50 24.9999ZM33.5744 4.36594C34.0257 4.23987 34.4914 4.17285 34.9599 4.16656C35.5135 4.15454 36.06 4.29232 36.5417 4.56533C38.6138 5.78629 39.102 10.1261 37.6999 15.9956C35.5281 15.4804 33.324 15.1131 31.1025 14.8963C29.6955 12.8436 28.143 10.8946 26.4568 9.06425C28.4172 6.94882 30.8587 5.33718 33.5744 4.36594ZM32.2744 29.3069C31.5223 30.636 30.7296 31.9102 29.9144 33.1313C28.3484 33.262 26.7076 33.3332 25 33.3332C23.2924 33.3332 21.6516 33.262 20.0856 33.1313C19.2705 31.9102 18.4776 30.636 17.7256 29.3069C16.899 27.8462 16.1597 26.4105 15.5076 24.9999C16.1632 23.5928 16.9025 22.1571 17.7256 20.6929C18.4777 19.3638 19.2705 18.0896 20.0856 16.8685C21.6516 16.7378 23.2924 16.6666 25 16.6666C26.7076 16.6666 28.3484 16.7378 29.9144 16.8685C30.7295 18.0896 31.5224 19.3638 32.2744 20.6929C33.101 22.1536 33.8403 23.5893 34.4924 24.9999C33.8369 26.407 33.0976 27.8427 32.2744 29.3069ZM35.5858 27.5079C36.2189 29.0624 36.7371 30.5569 37.1595 31.985C35.6513 32.346 34.1255 32.6294 32.5882 32.8343C33.0988 32.02 33.6018 31.1901 34.0872 30.3322C34.6222 29.3868 35.1146 28.4455 35.5858 27.5079ZM25 39.4364C23.7953 38.1253 22.6634 36.7493 21.6094 35.3143C22.7192 35.3746 23.8444 35.4166 25 35.4166C26.1556 35.4166 27.2808 35.3746 28.3906 35.3143C27.3366 36.7493 26.2047 38.1253 25 39.4364ZM17.4118 32.8344C15.8745 32.6295 14.3488 32.3461 12.8405 31.9851C13.2629 30.5569 13.7811 29.0624 14.4142 27.508C14.8853 28.4455 15.3778 29.3869 15.9129 30.3324C16.3982 31.1903 16.9013 32.0201 17.4118 32.8344ZM14.4142 22.4919C13.7811 20.9374 13.2629 19.4429 12.8405 18.0148C14.3488 17.6538 15.8745 17.3704 17.4118 17.1655C16.9013 17.9798 16.3982 18.8096 15.9129 19.6676C15.3778 20.613 14.8854 21.5543 14.4142 22.4919ZM25 10.5634C26.2047 11.8745 27.3366 13.2506 28.3907 14.6855C27.2809 14.6252 26.1556 14.5832 25 14.5832C23.8444 14.5832 22.7191 14.6252 21.6092 14.6855C22.6634 13.2506 23.7953 11.8745 25 10.5634ZM34.0871 19.6675C33.6017 18.8095 33.0987 17.9797 32.5882 17.1654C34.1254 17.3703 35.6512 17.6537 37.1595 18.0146C36.7371 19.4429 36.2189 20.9374 35.5858 22.4917C35.1146 21.5543 34.6222 20.613 34.0871 19.6675ZM13.4583 4.56533C13.94 4.29234 14.4865 4.15456 15.0401 4.16656C15.5086 4.17286 15.9743 4.23988 16.4255 4.36594C19.1412 5.33718 21.5827 6.94882 23.5431 9.06425C21.857 10.8946 20.3045 12.8436 18.8975 14.8963C16.676 15.1131 14.4719 15.4804 12.3001 15.9956C10.8979 10.1261 11.3862 5.78629 13.4583 4.56533ZM2.08333 24.9999C2.08333 22.6773 5.37071 20.2047 10.8204 18.56C11.4793 20.7573 12.2828 22.9087 13.2257 24.9999C12.2828 27.0911 11.4793 29.2425 10.8204 31.4398C5.37071 29.7951 2.08333 27.3225 2.08333 24.9999ZM16.4256 45.6339C15.943 45.8016 15.4315 45.8704 14.9217 45.8361C14.4119 45.8019 13.9142 45.6653 13.4583 45.4345C11.3863 44.2135 10.898 39.8736 12.3002 34.0042C14.4719 34.5194 16.6761 34.8867 18.8976 35.1035C20.3046 37.1562 21.8571 39.1052 23.5432 40.9355C21.5828 43.051 19.1413 44.6626 16.4256 45.6339ZM36.5417 45.4345C36.0858 45.6653 35.5881 45.802 35.0783 45.8362C34.5685 45.8705 34.057 45.8017 33.5743 45.6339C30.8587 44.6626 28.4172 43.051 26.4567 40.9355C28.1429 39.1052 29.6954 37.1562 31.1024 35.1035C33.3239 34.8867 35.5281 34.5194 37.6998 34.0042C39.1021 39.8736 38.6138 44.2135 36.5417 45.4345ZM39.1795 31.4398C38.5206 29.2425 37.7171 27.0911 36.7743 24.9999C37.7172 22.9087 38.5207 20.7573 39.1796 18.56C44.6293 20.2047 47.9167 22.6773 47.9167 24.9999C47.9167 27.3225 44.6292 29.7951 39.1795 31.4398Z" fill="url(#paint0_linear_387_590)"/>
<path d="M25.0002 20.8335C24.1761 20.8335 23.3705 21.0779 22.6853 21.5357C22.0001 21.9935 21.466 22.6443 21.1507 23.4056C20.8353 24.167 20.7528 25.0048 20.9136 25.813C21.0743 26.6213 21.4712 27.3637 22.0539 27.9464C22.6366 28.5292 23.379 28.926 24.1873 29.0868C24.9955 29.2475 25.8333 29.165 26.5947 28.8497C27.356 28.5343 28.0068 28.0002 28.4646 27.315C28.9225 26.6298 29.1668 25.8243 29.1668 25.0002C29.1656 23.8955 28.7262 22.8364 27.945 22.0553C27.1639 21.2742 26.1048 20.8348 25.0002 20.8335ZM25.0002 27.0835C24.5881 27.0835 24.1853 26.9613 23.8427 26.7324C23.5001 26.5035 23.2331 26.1781 23.0754 25.7974C22.9177 25.4167 22.8765 24.9979 22.9569 24.5937C23.0372 24.1896 23.2357 23.8184 23.527 23.527C23.8184 23.2357 24.1896 23.0372 24.5937 22.9569C24.9979 22.8765 25.4167 22.9177 25.7974 23.0754C26.1781 23.2331 26.5035 23.5001 26.7324 23.8427C26.9613 24.1853 27.0835 24.5881 27.0835 25.0002C27.0829 25.5525 26.8633 26.0821 26.4727 26.4727C26.0821 26.8633 25.5525 27.0829 25.0002 27.0835Z" fill="url(#paint1_linear_387_590)"/>
<defs>
<linearGradient id="paint0_linear_387_590" x1="4.06302" y1="15.2366" x2="45.9371" y2="34.7628" gradientUnits="userSpaceOnUse">
<stop stop-color="white" stop-opacity="0.2"/>
<stop offset="1" stop-color="white" stop-opacity="0"/>
</linearGradient>
<linearGradient id="paint1_linear_387_590" x1="4.06319" y1="15.2369" x2="45.9373" y2="34.7631" gradientUnits="userSpaceOnUse">
<stop stop-color="white" stop-opacity="0.2"/>
<stop offset="1" stop-color="white" stop-opacity="0"/>
</linearGradient>
</defs>
</svg>
