<svg width="49" height="49" viewBox="0 0 49 49" fill="none" xmlns="http://www.w3.org/2000/svg">
<g clip-path="url(#clip0_387_584)">
<path d="M24.5 49C38.031 49 49 38.031 49 24.5C49 10.969 38.031 0 24.5 0C10.969 0 0 10.969 0 24.5C0 38.031 10.969 49 24.5 49Z" fill="#FF5722"/>
<path d="M28.0636 11.103C41.5275 20.0873 37.162 29.9597 37.162 29.9597C37.162 29.9597 40.9846 34.1915 39.4478 37.8971C39.4478 37.8971 37.8609 35.3079 35.2271 35.3079C32.6824 35.3079 31.1763 37.8971 26.0396 37.8971C14.6053 37.8971 9.1875 28.5314 9.1875 28.5314C19.4886 35.191 26.5268 30.4803 26.5268 30.4803C21.8746 27.841 12.0106 15.204 12.0106 15.204C20.6023 22.3842 24.3218 24.269 24.3218 24.269C22.0945 22.476 15.8721 13.6894 15.8721 13.6894C20.8473 18.6256 30.7391 25.5079 30.7391 25.5079C33.5761 17.9101 28.0636 11.103 28.0636 11.103Z" fill="white"/>
</g>
<defs>
<clipPath id="clip0_387_584">
<rect width="49" height="49" fill="white"/>
</clipPath>
</defs>
</svg>
